<mxfile host="65bd71144e">
    <diagram id="JWge4KE4oWd2N9IsjyNw" name="Page-1">
        <mxGraphModel dx="975" dy="726" grid="1" gridSize="10" guides="1" tooltips="1" connect="1" arrows="1" fold="1" page="1" pageScale="1" pageWidth="850" pageHeight="1100" math="0" shadow="0">
            <root>
                <mxCell id="0"/>
                <mxCell id="1" parent="0"/>
                <mxCell id="2" value="Id: PK, Autonum&lt;div&gt;Name: String&lt;/div&gt;&lt;div&gt;Surname: String&lt;/div&gt;&lt;div&gt;Age: String&lt;/div&gt;&lt;div&gt;PESEL: String&lt;/div&gt;&lt;div&gt;Phone: String&lt;/div&gt;&lt;div&gt;Email: String&lt;/div&gt;" style="rounded=0;whiteSpace=wrap;html=1;" vertex="1" parent="1">
                    <mxGeometry x="40" y="80" width="120" height="120" as="geometry"/>
                </mxCell>
                <mxCell id="3" value="Person" style="rounded=0;whiteSpace=wrap;html=1;" vertex="1" parent="1">
                    <mxGeometry x="40" y="60" width="120" height="20" as="geometry"/>
                </mxCell>
                <mxCell id="5" value="Person_Id: PK, FK&lt;div&gt;Specialization: &lt;font style=&quot;color: rgb(153, 255, 153);&quot;&gt;enum&lt;/font&gt;&lt;/div&gt;&lt;div&gt;&lt;font style=&quot;color: rgb(51, 0, 0);&quot;&gt;Place: FK&lt;/font&gt;&lt;/div&gt;" style="rounded=0;whiteSpace=wrap;html=1;" vertex="1" parent="1">
                    <mxGeometry x="240" y="80" width="120" height="60" as="geometry"/>
                </mxCell>
                <mxCell id="6" value="Doctor" style="rounded=0;whiteSpace=wrap;html=1;" vertex="1" parent="1">
                    <mxGeometry x="240" y="60" width="120" height="20" as="geometry"/>
                </mxCell>
                <mxCell id="7" value="Visit" style="rounded=0;whiteSpace=wrap;html=1;" vertex="1" parent="1">
                    <mxGeometry x="240" y="200" width="120" height="20" as="geometry"/>
                </mxCell>
                <mxCell id="8" value="Id: Autonum&lt;div&gt;Person: FK&lt;/div&gt;&lt;div&gt;Doctor: FK&lt;/div&gt;&lt;div&gt;Room: FK&lt;/div&gt;&lt;div&gt;Date: Date&lt;/div&gt;&lt;div&gt;Status: &lt;font style=&quot;color: rgb(255, 204, 153);&quot;&gt;enum&lt;/font&gt;&lt;/div&gt;" style="rounded=0;whiteSpace=wrap;html=1;" vertex="1" parent="1">
                    <mxGeometry x="240" y="220" width="120" height="100" as="geometry"/>
                </mxCell>
                <mxCell id="9" value="&amp;lt;&amp;lt; Specialization &amp;gt;&amp;gt;" style="rounded=0;whiteSpace=wrap;html=1;fillColor=#d5e8d4;strokeColor=#82b366;" vertex="1" parent="1">
                    <mxGeometry x="40" y="360" width="120" height="20" as="geometry"/>
                </mxCell>
                <mxCell id="10" value="Pediatra&lt;div&gt;...&lt;/div&gt;&lt;div&gt;...&lt;/div&gt;" style="rounded=0;whiteSpace=wrap;html=1;fillColor=#d5e8d4;strokeColor=#82b366;" vertex="1" parent="1">
                    <mxGeometry x="40" y="380" width="120" height="60" as="geometry"/>
                </mxCell>
                <mxCell id="11" value="&amp;lt;&amp;lt; Status &amp;gt;&amp;gt;" style="rounded=0;whiteSpace=wrap;html=1;fillColor=#ffe6cc;strokeColor=#d79b00;" vertex="1" parent="1">
                    <mxGeometry x="40" y="470" width="120" height="20" as="geometry"/>
                </mxCell>
                <mxCell id="12" value="Booked&lt;div&gt;Pending&lt;/div&gt;&lt;div&gt;Done&lt;/div&gt;&lt;div&gt;Cancel_P&lt;/div&gt;&lt;div&gt;Cancel_D&lt;/div&gt;" style="rounded=0;whiteSpace=wrap;html=1;fillColor=#ffe6cc;strokeColor=#d79b00;" vertex="1" parent="1">
                    <mxGeometry x="40" y="490" width="120" height="80" as="geometry"/>
                </mxCell>
                <mxCell id="13" value="Jeżeli status jest inny niż booked, to trzeba zablokować edycję wizyty" style="text;html=1;align=left;verticalAlign=middle;whiteSpace=wrap;rounded=0;" vertex="1" parent="1">
                    <mxGeometry x="180" y="470" width="120" height="50" as="geometry"/>
                </mxCell>
                <mxCell id="14" value="" style="endArrow=none;html=1;exitX=1;exitY=0.5;exitDx=0;exitDy=0;entryX=0;entryY=0.5;entryDx=0;entryDy=0;" edge="1" parent="1" source="3" target="6">
                    <mxGeometry width="50" height="50" relative="1" as="geometry">
                        <mxPoint x="220" y="230" as="sourcePoint"/>
                        <mxPoint x="270" y="180" as="targetPoint"/>
                    </mxGeometry>
                </mxCell>
                <mxCell id="15" value="Main DB" style="text;strokeColor=none;fillColor=none;html=1;fontSize=24;fontStyle=1;verticalAlign=middle;align=center;" vertex="1" parent="1">
                    <mxGeometry x="10" width="100" height="40" as="geometry"/>
                </mxCell>
                <mxCell id="17" value="" style="endArrow=none;html=1;entryX=0;entryY=0.5;entryDx=0;entryDy=0;exitX=1;exitY=0.75;exitDx=0;exitDy=0;" edge="1" parent="1" source="3" target="7">
                    <mxGeometry width="50" height="50" relative="1" as="geometry">
                        <mxPoint x="180" y="110" as="sourcePoint"/>
                        <mxPoint x="220" y="290" as="targetPoint"/>
                        <Array as="points">
                            <mxPoint x="200" y="75"/>
                            <mxPoint x="200" y="210"/>
                        </Array>
                    </mxGeometry>
                </mxCell>
                <mxCell id="18" value="" style="endArrow=none;html=1;entryX=0;entryY=0.25;entryDx=0;entryDy=0;exitX=0;exitY=0.75;exitDx=0;exitDy=0;" edge="1" parent="1" source="6" target="7">
                    <mxGeometry width="50" height="50" relative="1" as="geometry">
                        <mxPoint x="170" y="240" as="sourcePoint"/>
                        <mxPoint x="220" y="190" as="targetPoint"/>
                        <Array as="points">
                            <mxPoint x="230" y="75"/>
                            <mxPoint x="230" y="205"/>
                        </Array>
                    </mxGeometry>
                </mxCell>
                <mxCell id="19" value="Room" style="rounded=0;whiteSpace=wrap;html=1;" vertex="1" parent="1">
                    <mxGeometry x="440" y="200" width="120" height="20" as="geometry"/>
                </mxCell>
                <mxCell id="20" value="Name: PK, String&lt;div&gt;Place: PK, FK&lt;/div&gt;" style="rounded=0;whiteSpace=wrap;html=1;" vertex="1" parent="1">
                    <mxGeometry x="440" y="220" width="120" height="40" as="geometry"/>
                </mxCell>
                <mxCell id="21" value="Place" style="rounded=0;whiteSpace=wrap;html=1;" vertex="1" parent="1">
                    <mxGeometry x="440" y="300" width="120" height="20" as="geometry"/>
                </mxCell>
                <mxCell id="22" value="&lt;div&gt;Id: PK, Autonum&lt;/div&gt;Name: String&lt;div&gt;Address: String&lt;/div&gt;" style="rounded=0;whiteSpace=wrap;html=1;" vertex="1" parent="1">
                    <mxGeometry x="440" y="320" width="120" height="60" as="geometry"/>
                </mxCell>
                <mxCell id="23" value="WorkHours" style="rounded=0;whiteSpace=wrap;html=1;" vertex="1" parent="1">
                    <mxGeometry x="440" y="60" width="120" height="20" as="geometry"/>
                </mxCell>
                <mxCell id="24" value="Doctor: FK&lt;div&gt;Room: FK&lt;/div&gt;&lt;div&gt;Day: String&lt;/div&gt;&lt;div&gt;StartHour: Time&lt;/div&gt;&lt;div&gt;EndHour: Time&lt;/div&gt;" style="rounded=0;whiteSpace=wrap;html=1;" vertex="1" parent="1">
                    <mxGeometry x="440" y="80" width="120" height="80" as="geometry"/>
                </mxCell>
                <mxCell id="25" value="" style="endArrow=none;html=1;entryX=0;entryY=0.5;entryDx=0;entryDy=0;exitX=1;exitY=0.5;exitDx=0;exitDy=0;" edge="1" parent="1" source="6" target="23">
                    <mxGeometry width="50" height="50" relative="1" as="geometry">
                        <mxPoint x="300" y="420" as="sourcePoint"/>
                        <mxPoint x="350" y="370" as="targetPoint"/>
                    </mxGeometry>
                </mxCell>
                <mxCell id="26" value="" style="endArrow=none;html=1;entryX=0;entryY=0.5;entryDx=0;entryDy=0;exitX=1;exitY=0.5;exitDx=0;exitDy=0;" edge="1" parent="1" source="7" target="19">
                    <mxGeometry width="50" height="50" relative="1" as="geometry">
                        <mxPoint x="320" y="470" as="sourcePoint"/>
                        <mxPoint x="370" y="420" as="targetPoint"/>
                    </mxGeometry>
                </mxCell>
                <mxCell id="27" value="" style="endArrow=none;html=1;entryX=0;entryY=0.5;entryDx=0;entryDy=0;exitX=0;exitY=0.75;exitDx=0;exitDy=0;" edge="1" parent="1" source="19" target="21">
                    <mxGeometry width="50" height="50" relative="1" as="geometry">
                        <mxPoint x="380" y="390" as="sourcePoint"/>
                        <mxPoint x="430" y="340" as="targetPoint"/>
                        <Array as="points">
                            <mxPoint x="430" y="215"/>
                            <mxPoint x="430" y="310"/>
                        </Array>
                    </mxGeometry>
                </mxCell>
                <mxCell id="28" value="" style="endArrow=none;html=1;entryX=0;entryY=0.75;entryDx=0;entryDy=0;exitX=0;exitY=0.25;exitDx=0;exitDy=0;" edge="1" parent="1" source="19" target="23">
                    <mxGeometry width="50" height="50" relative="1" as="geometry">
                        <mxPoint x="370" y="150" as="sourcePoint"/>
                        <mxPoint x="420" y="100" as="targetPoint"/>
                        <Array as="points">
                            <mxPoint x="430" y="205"/>
                            <mxPoint x="430" y="75"/>
                        </Array>
                    </mxGeometry>
                </mxCell>
            </root>
        </mxGraphModel>
    </diagram>
</mxfile>